<?xml version="1.0" standalone="no"?>
<svg xmlns:xlink="http://www.w3.org/1999/xlink" id="wave" style="transform:rotate(0deg); transition: 0.3s" viewBox="0 0 1440 220" version="1.1" xmlns="http://www.w3.org/2000/svg"><defs><linearGradient id="sw-gradient-0" x1="0" x2="0" y1="1" y2="0"><stop stop-color="rgba(255, 120.302, 154.808, 0.66)" offset="0%"/><stop stop-color="rgba(255, 126.06, 207.137, 0.36)" offset="100%"/></linearGradient></defs><path style="transform:translate(0, 0px); opacity:1" fill="url(#sw-gradient-0)" d="M0,0L30,25.7C60,51,120,103,180,121C240,139,300,125,360,99C420,73,480,37,540,25.7C600,15,660,29,720,55C780,81,840,117,900,143C960,169,1020,183,1080,161.3C1140,139,1200,81,1260,80.7C1320,81,1380,139,1440,150.3C1500,161,1560,125,1620,99C1680,73,1740,59,1800,58.7C1860,59,1920,73,1980,66C2040,59,2100,29,2160,14.7C2220,0,2280,0,2340,3.7C2400,7,2460,15,2520,33C2580,51,2640,81,2700,84.3C2760,88,2820,66,2880,77C2940,88,3000,132,3060,150.3C3120,169,3180,161,3240,135.7C3300,110,3360,66,3420,73.3C3480,81,3540,139,3600,135.7C3660,132,3720,66,3780,44C3840,22,3900,44,3960,47.7C4020,51,4080,37,4140,25.7C4200,15,4260,7,4290,3.7L4320,0L4320,220L4290,220C4260,220,4200,220,4140,220C4080,220,4020,220,3960,220C3900,220,3840,220,3780,220C3720,220,3660,220,3600,220C3540,220,3480,220,3420,220C3360,220,3300,220,3240,220C3180,220,3120,220,3060,220C3000,220,2940,220,2880,220C2820,220,2760,220,2700,220C2640,220,2580,220,2520,220C2460,220,2400,220,2340,220C2280,220,2220,220,2160,220C2100,220,2040,220,1980,220C1920,220,1860,220,1800,220C1740,220,1680,220,1620,220C1560,220,1500,220,1440,220C1380,220,1320,220,1260,220C1200,220,1140,220,1080,220C1020,220,960,220,900,220C840,220,780,220,720,220C660,220,600,220,540,220C480,220,420,220,360,220C300,220,240,220,180,220C120,220,60,220,30,220L0,220Z"/></svg>